<?xml version="1.0" standalone="no"?>
<!DOCTYPE svg PUBLIC "-//W3C//DTD SVG 20010904//EN"
 "http://www.w3.org/TR/2001/REC-SVG-20010904/DTD/svg10.dtd">
<svg version="1.0" xmlns="http://www.w3.org/2000/svg"
 width="250.000000pt" height="180.000000pt" viewBox="0 0 250.000000 180.000000"
 preserveAspectRatio="xMidYMid meet">

<g transform="translate(0.000000,180.000000) scale(0.100000,-0.100000)"
fill="#000000" stroke="none">
<path d="M10 940 l0 -790 1245 0 1245 0 0 790 0 790 -1245 0 -1245 0 0 -790z
m1160 45 l0 -215 -345 0 -345 0 0 -70 0 -70 345 0 345 0 0 -70 0 -70 -415 0
-415 0 0 355 0 355 415 0 415 0 0 -215z m1000 -145 l0 -350 -425 0 -425 0 0
210 0 210 355 0 355 0 0 75 0 75 -355 0 -355 0 0 65 0 65 425 0 425 0 0 -350z"/>
<path d="M480 985 l0 -75 275 0 275 0 0 75 0 75 -275 0 -275 0 0 -75z"/>
<path d="M1460 695 l0 -75 285 0 285 0 0 75 0 75 -285 0 -285 0 0 -75z"/>
</g>
</svg>
